<svg viewBox="0 0 24 24" ><path style="fill:#ffffff;fill-opacity:1;" d="M 11.460012,1.515e-6 V 2.1549993e-4 H 1.0575403 2.3577327e-4 V 1.0565848 11.449855 H 2.16e-5 v 1.056574 h 2.1417327e-4 v 11.49357 H 1.0575403 V 12.555107 c 5.8382554,0.532282 10.4024717,5.471581 10.4024717,11.4449 l 1.057515,-8e-6 c 0,-5.64901 -3.7605698,-10.473592 -8.9135769,-12.021974 C 8.7569572,10.42946 12.517527,5.6490043 12.517527,1.515e-6 Z M 1.0575403,1.0565767 H 11.411071 C 10.910026,6.541683 6.5475024,10.900348 1.0575403,11.400949 Z" /><path style="fill:#ffffff;fill-opacity:1;" d="m 17.477568,0.02806071 v 17.45505829 0.0076 c 0.0042,3.589506 2.928819,6.509244 6.522454,6.509244 V 22.94319 c -3.024781,0 -5.464943,-2.438003 -5.464943,-5.460107 h -2.52e-4 V 0.02806071 Z" /></svg>